<svg xmlns="http://www.w3.org/2000/svg" viewBox="0 0 800 420"><rect width="800" height="420" fill="white"/><g stroke="#222" stroke-width="3" fill="none"><line x1="90" y1="350" x2="740" y2="350"/><line x1="90" y1="350" x2="90" y2="55"/><path d="M120 325 Q300 280 450 205 T710 75"/></g><line x1="170" y1="298" x2="620" y2="116" stroke="#555" stroke-width="4"/><circle cx="170" cy="298" r="7" fill="#222"/><circle cx="620" cy="116" r="7" fill="#222"/><line x1="170" y1="330" x2="620" y2="330" stroke="#777" stroke-width="2"/><line x1="170" y1="322" x2="170" y2="338" stroke="#777" stroke-width="2"/><line x1="620" y1="322" x2="620" y2="338" stroke="#777" stroke-width="2"/><line x1="150" y1="298" x2="150" y2="116" stroke="#777" stroke-width="2"/><line x1="142" y1="298" x2="158" y2="298" stroke="#777" stroke-width="2"/><line x1="142" y1="116" x2="158" y2="116" stroke="#777" stroke-width="2"/><g font-family="Arial,sans-serif" font-size="24" fill="#222"><text x="155" y="375">x₁</text><text x="605" y="375">x₂</text><text x="355" y="360">Δx</text><text x="105" y="215">Δy</text><text x="315" y="190">secant</text><text x="665" y="385">x</text><text x="55" y="65">y</text></g></svg>